<?xml version="1.0" encoding="UTF-8"?>
<!DOCTYPE svg PUBLIC "-//W3C//DTD SVG 1.1//EN" "http://www.w3.org/Graphics/SVG/1.1/DTD/svg11.dtd">
<!-- Creator: CorelDRAW Home & Student X6 -->
<svg xmlns="http://www.w3.org/2000/svg" xml:space="preserve" width="204.087mm" height="27.4525mm" version="1.1" style="shape-rendering:geometricPrecision; text-rendering:geometricPrecision; image-rendering:optimizeQuality; fill-rule:evenodd; clip-rule:evenodd"
viewBox="0 0 22110 2974"
 xmlns:xlink="http://www.w3.org/1999/xlink">
 <defs>
  <style type="text/css">
   <![CDATA[
    .fil0 {fill:#012454}
    .fil1 {fill:#012454;fill-rule:nonzero}
   ]]>
  </style>
 </defs>
 <g id="Warstwa_x0020_1">
  <metadata id="CorelCorpID_0Corel-Layer"/>
  <path class="fil0" d="M3870 2864l162 73c-48,-120 -386,-462 -490,-591 -834,-1026 -1285,-998 -403,-1814 130,-121 279,-311 423,-273 95,25 279,248 297,396 -388,30 -370,-65 -254,799l-86 34c-23,7 -54,7 -87,18 -56,198 -36,251 60,402 100,158 546,754 690,818 -10,-272 -28,-844 38,-1080 29,-8 -39,-20 61,-3 45,8 -13,-10 38,11 86,35 547,533 660,631 86,74 132,175 220,221 -28,-299 -271,-620 -316,-924 227,122 363,519 555,616 2,-90 -7,-167 -1,-258 8,-131 26,-159 57,-208 535,346 702,703 1020,1055l69 -195c122,49 404,248 457,336 93,11 40,13 137,44 -81,-143 -1530,-1586 -1625,-1608 -248,-58 -223,435 -778,-223l-609 -652c-553,-647 -606,-605 -1063,-168l-631 630c-217,183 -212,9 -441,190 -253,199 -446,382 -685,576 -239,194 -462,367 -704,557 -117,92 -253,197 -348,283 -96,88 -286,205 -293,316 161,-81 281,-201 418,-306 276,-213 611,-429 928,-591 132,-67 450,-153 521,-266 -48,-21 43,-11 -67,-15 -51,-2 -24,-2 -68,5 -51,8 -69,21 -128,29 83,-87 522,-384 661,-347 19,12 188,437 167,499 -72,33 -87,12 -165,-11 -43,-13 -45,-23 -97,-22 -200,5 161,-53 -72,18 -6,2 -16,6 -23,11 -161,365 451,935 636,1033 -115,-391 -313,-376 -66,-687 113,44 327,283 459,366l-52 -331c155,33 791,541 818,603z"/>
  <polygon class="fil1" points="9125,1068 9372,1068 9372,2371 9171,2371 9171,1377 9180,1435 8895,2208 8724,2208 8439,1453 8447,1377 8447,2371 8247,2371 8247,1068 8494,1068 8809,1937 "/>
  <path id="1" class="fil1" d="M10117 2384c-93,0 -174,-20 -245,-60 -71,-40 -125,-96 -164,-168 -39,-72 -58,-157 -58,-252l0 -369c0,-96 20,-180 58,-252 39,-72 93,-129 164,-168 70,-40 152,-60 245,-60 92,0 174,20 245,60 71,40 125,96 164,168 39,72 58,157 58,252l0 369c0,95 -19,179 -58,252 -39,73 -93,129 -164,168 -71,40 -153,60 -245,60zm0 -213c49,0 92,-11 129,-32 37,-21 66,-52 87,-91 20,-39 30,-85 30,-137l0 -382c0,-52 -10,-98 -30,-138 -20,-40 -49,-70 -87,-92 -37,-21 -80,-32 -129,-32 -49,0 -92,11 -129,32 -37,21 -66,52 -86,92 -20,40 -30,86 -30,138l0 382c0,52 10,98 30,137 20,39 49,70 86,91 37,21 80,32 129,32z"/>
  <path id="2" class="fil1" d="M11273 2384c-98,0 -182,-19 -252,-57 -70,-38 -123,-93 -160,-166 -36,-72 -54,-160 -54,-262l0 -831 214 0 0 837c0,85 22,151 66,197 44,46 106,70 186,70 81,0 143,-24 187,-70 44,-46 66,-112 66,-197l0 -837 214 0 0 831c0,102 -18,190 -54,262 -37,72 -90,128 -160,166 -70,38 -155,57 -253,57z"/>
  <polygon id="3" class="fil1" points="12009,1068 12242,1068 12803,2071 12781,2094 12781,1068 12989,1068 12989,2370 12755,2370 12195,1383 12217,1359 12217,2370 12009,2370 "/>
  <path id="4" class="fil1" d="M13548 1175l214 0 0 1196 -214 0 0 -1196zm-362 -107l937 0 0 205 -937 0 0 -205z"/>
  <path id="5" class="fil1" d="M14568 1068l156 0 489 1303 -230 0 -337 -970 -336 970 -231 0 489 -1303zm-259 850l685 0 0 205 -685 0 0 -205z"/>
  <polygon id="6" class="fil1" points="15601,2371 15383,2371 15383,1068 15601,1068 "/>
  <polygon id="7" class="fil1" points="15897,1068 16130,1068 16691,2071 16669,2094 16669,1068 16877,1068 16877,2370 16642,2370 16083,1383 16105,1359 16105,2370 15897,2370 "/>
  <path id="8" class="fil1" d="M18074 2384c-62,0 -122,-6 -180,-18 -58,-12 -112,-31 -163,-55 -50,-24 -97,-54 -139,-88l0 0 114 -171 0 0c50,42 107,74 169,96 63,22 129,33 198,33 87,0 155,-16 203,-46 48,-31 72,-75 72,-132l0 -1c0,-40 -11,-72 -32,-95 -22,-24 -50,-41 -84,-52 -35,-11 -79,-21 -133,-31 -2,-1 -4,-1 -6,-1 -2,0 -4,0 -6,-1l-16 -3c-87,-14 -159,-31 -215,-51 -56,-20 -104,-55 -143,-105 -39,-51 -59,-123 -59,-216l0 -1c0,-83 18,-153 55,-212 37,-58 91,-103 161,-133 71,-31 155,-46 255,-46 46,0 93,5 140,16 47,10 93,25 139,46 45,20 89,45 131,75l0 0 -104 176 0 0c-50,-36 -101,-63 -152,-82 -52,-18 -103,-28 -153,-28 -82,0 -146,15 -191,45 -46,30 -68,73 -68,128l0 1c0,41 12,73 35,97 24,24 53,41 87,52 35,11 83,23 146,35 2,1 5,1 7,2 2,0 4,1 7,1 3,1 7,1 10,2 3,1 7,2 10,2 81,16 148,35 202,58 54,22 99,58 135,109 36,50 54,119 54,206l0 2c0,81 -19,151 -57,208 -38,58 -94,102 -167,132 -73,30 -161,46 -263,46z"/>
  <path id="9" class="fil1" d="M19512 1068l214 0 0 1303 -214 0 0 -1303zm-726 0l214 0 0 1303 -214 0 0 -1303zm114 556l741 0 0 205 -741 0 0 -205z"/>
  <path id="10" class="fil1" d="M20471 2384c-93,0 -174,-20 -245,-60 -71,-40 -125,-96 -164,-168 -39,-72 -58,-157 -58,-252l0 -369c0,-96 20,-180 58,-252 39,-72 93,-129 164,-168 70,-40 152,-60 245,-60 92,0 174,20 245,60 71,40 125,96 164,168 39,72 58,157 58,252l0 369c0,95 -19,179 -58,252 -39,73 -93,129 -164,168 -71,40 -153,60 -245,60zm0 -213c49,0 92,-11 129,-32 37,-21 66,-52 87,-91 20,-39 30,-85 30,-137l0 -382c0,-52 -10,-98 -30,-138 -20,-40 -49,-70 -87,-92 -37,-21 -80,-32 -129,-32 -49,0 -92,11 -129,32 -37,21 -66,52 -86,92 -20,40 -30,86 -30,138l0 382c0,52 10,98 30,137 20,39 49,70 86,91 37,21 80,32 129,32z"/>
  <path id="11" class="fil1" d="M21300 1661l416 0c35,0 65,-8 91,-24 26,-16 46,-39 61,-68 15,-29 22,-63 22,-100l0 0c0,-39 -7,-73 -22,-102 -14,-29 -35,-52 -61,-68 -26,-16 -57,-24 -91,-24l-416 0 0 -205 410 0c79,0 150,17 210,50 61,33 107,80 141,140 33,61 50,130 50,210l0 0c0,79 -17,149 -50,209 -33,60 -80,106 -141,139 -61,33 -131,50 -210,50l-410 0 0 -205zm-103 -592l214 0 0 1303 -214 0 0 -1303z"/>
 </g>
</svg>
